<svg xmlns="http://www.w3.org/2000/svg" viewBox="0 0 100 30" fill="none">
  <path d="M49.6 19.3c-4.4 3.3-10.9 5.1-16.4 5.1-7.8 0-14.8-3-20.1-7.9-.4-.4 0-.9.5-.6 5.8 3.4 12.8 5.4 20.1 5.4 5 0 10.5-1.3 15.4-4 .7-.5 1.1.4.5 1z" fill="#FF9900"/>
  <path d="M51.1 17.5c-.5-.6-3.3-.3-4.7-.2-.4 0-.5-.3-.1-.6 2.3-1.6 6-1.1 6.5-.5.4.6-.3 4.3-2.5 6.1-.3.3-.6.1-.5-.2.5-1.2 1.8-3.9 1.3-4.6z" fill="#FF9900"/>
  <path d="M12.4 17.3h2.3V7.2h-2.3v1.6c-.7-1.2-1.9-1.9-3.4-1.9-3.3 0-5.6 2.5-5.6 5.7 0 3.3 2.3 5.7 5.6 5.7 1.5 0 2.7-.7 3.4-1.9v0.9zm-3.3-1.7c-1.9 0-3.3-1.5-3.3-3.7 0-2.2 1.4-3.7 3.3-3.7 1.9 0 3.3 1.5 3.3 3.7 0 2.2-1.4 3.7-3.3 3.7zm11.7 1.7h2.3V7.2h-2.3v1.3c-.6-1-1.6-1.6-2.9-1.6-1.2 0-2.2.6-2.7 1.5-.6-.9-1.5-1.5-2.7-1.5-1.2 0-2.2.6-2.6 1.7v-1.4h-2.3v10.1h2.3v-5.2c0-1.8.8-2.8 2-2.8 1.1 0 1.8.9 1.8 2.5v5.5h2.3v-5.2c0-1.8.8-2.8 2-2.8 1.1 0 1.8.9 1.8 2.5v5.5zm10.7-10.4c-3.3 0-5.7 2.4-5.7 5.7 0 3.3 2.4 5.7 5.7 5.7 3.3 0 5.7-2.4 5.7-5.7 0-3.3-2.4-5.7-5.7-5.7zm0 9.4c-2 0-3.4-1.6-3.4-3.7s1.4-3.7 3.4-3.7 3.4 1.6 3.4 3.7-1.4 3.7-3.4 3.7zm11.1-9.1h-7.7v1.8l4.8 6.1h-4.9v2.2h8v-1.8l-4.9-6.1h4.7V6.9zm8.5 0c-3.3 0-5.7 2.4-5.7 5.7 0 3.3 2.4 5.7 5.7 5.7 3.3 0 5.7-2.4 5.7-5.7 0-3.3-2.4-5.7-5.7-5.7zm0 9.4c-2 0-3.4-1.6-3.4-3.7s1.4-3.7 3.4-3.7 3.4 1.6 3.4 3.7-1.4 3.7-3.4 3.7zm11.2-9.4c-1.3 0-2.4.7-3 1.8v-1.5h-2.3v10.1h2.3v-5.2c0-1.9.9-2.9 2.2-2.9 1.2 0 1.9.9 1.9 2.5v5.6h2.3v-6c0-2.8-1.5-4.4-3.4-4.4z" fill="#131921"/>
</svg>
